<mxfile host="app.diagrams.net" agent="Mozilla/5.0 (Windows NT 10.0; Win64; x64) AppleWebKit/537.36 (KHTML, like Gecko) Chrome/134.0.0.0 Safari/537.36" version="26.1.1">
  <diagram name="Page-1" id="Bit871E_AxoPYgvK1CPB">
    <mxGraphModel dx="1434" dy="738" grid="1" gridSize="10" guides="1" tooltips="1" connect="1" arrows="1" fold="1" page="1" pageScale="1" pageWidth="850" pageHeight="1100" math="0" shadow="0">
      <root>
        <mxCell id="0" />
        <mxCell id="1" parent="0" />
        <mxCell id="tKOs7SL-gVubK4A12bbo-3" value="" style="edgeStyle=orthogonalEdgeStyle;rounded=0;orthogonalLoop=1;jettySize=auto;html=1;" edge="1" parent="1" source="tKOs7SL-gVubK4A12bbo-1" target="tKOs7SL-gVubK4A12bbo-2">
          <mxGeometry relative="1" as="geometry" />
        </mxCell>
        <mxCell id="tKOs7SL-gVubK4A12bbo-1" value="Start" style="ellipse;whiteSpace=wrap;html=1;" vertex="1" parent="1">
          <mxGeometry x="365" y="40" width="120" height="80" as="geometry" />
        </mxCell>
        <mxCell id="tKOs7SL-gVubK4A12bbo-7" value="" style="edgeStyle=orthogonalEdgeStyle;rounded=0;orthogonalLoop=1;jettySize=auto;html=1;" edge="1" parent="1" source="tKOs7SL-gVubK4A12bbo-2" target="tKOs7SL-gVubK4A12bbo-6">
          <mxGeometry relative="1" as="geometry" />
        </mxCell>
        <mxCell id="tKOs7SL-gVubK4A12bbo-2" value="Input" style="shape=parallelogram;perimeter=parallelogramPerimeter;whiteSpace=wrap;html=1;fixedSize=1;rounded=1" vertex="1" parent="1">
          <mxGeometry x="365" y="160" width="120" height="60" as="geometry" />
        </mxCell>
        <mxCell id="tKOs7SL-gVubK4A12bbo-9" value="" style="edgeStyle=orthogonalEdgeStyle;rounded=0;orthogonalLoop=1;jettySize=auto;html=1;" edge="1" parent="1" source="tKOs7SL-gVubK4A12bbo-6" target="tKOs7SL-gVubK4A12bbo-8">
          <mxGeometry relative="1" as="geometry" />
        </mxCell>
        <mxCell id="tKOs7SL-gVubK4A12bbo-6" value="Process" style="whiteSpace=wrap;html=1;rounded=1" vertex="1" parent="1">
          <mxGeometry x="365" y="260" width="120" height="60" as="geometry" />
        </mxCell>
        <mxCell id="tKOs7SL-gVubK4A12bbo-11" value="" style="edgeStyle=orthogonalEdgeStyle;rounded=0;orthogonalLoop=1;jettySize=auto;html=1;" edge="1" parent="1" source="tKOs7SL-gVubK4A12bbo-8" target="tKOs7SL-gVubK4A12bbo-10">
          <mxGeometry relative="1" as="geometry" />
        </mxCell>
        <mxCell id="tKOs7SL-gVubK4A12bbo-8" value="Output" style="shape=parallelogram;perimeter=parallelogramPerimeter;whiteSpace=wrap;html=1;fixedSize=1;rounded=1" vertex="1" parent="1">
          <mxGeometry x="365" y="370" width="120" height="60" as="geometry" />
        </mxCell>
        <mxCell id="tKOs7SL-gVubK4A12bbo-10" value="Stop" style="ellipse;whiteSpace=wrap;html=1;" vertex="1" parent="1">
          <mxGeometry x="365" y="480" width="120" height="80" as="geometry" />
        </mxCell>
      </root>
    </mxGraphModel>
  </diagram>
</mxfile>
